<?xml version="1.0" encoding="UTF-8"?>
<!DOCTYPE svg PUBLIC "-//W3C//DTD SVG 1.1//EN" "http://www.w3.org/Graphics/SVG/1.1/DTD/svg11.dtd">
<svg xmlns="http://www.w3.org/2000/svg" version="1.1" width="20px" height="20px" style="shape-rendering:geometricPrecision; text-rendering:geometricPrecision; image-rendering:optimizeQuality; fill-rule:evenodd; clip-rule:evenodd" xmlns:xlink="http://www.w3.org/1999/xlink">
<g><path style="opacity:1" fill="#00b7ef" d="M 7.5,-0.5 C 8.83333,-0.5 10.1667,-0.5 11.5,-0.5C 11.5,2.16667 11.5,4.83333 11.5,7.5C 14.1667,7.5 16.8333,7.5 19.5,7.5C 19.5,8.83333 19.5,10.1667 19.5,11.5C 16.8333,11.5 14.1667,11.5 11.5,11.5C 11.5,14.1667 11.5,16.8333 11.5,19.5C 10.1667,19.5 8.83333,19.5 7.5,19.5C 7.5,16.8333 7.5,14.1667 7.5,11.5C 4.83333,11.5 2.16667,11.5 -0.5,11.5C -0.5,10.1667 -0.5,8.83333 -0.5,7.5C 2.16667,7.5 4.83333,7.5 7.5,7.5C 7.5,4.83333 7.5,2.16667 7.5,-0.5 Z"/></g>
</svg>
